<svg width="204" height="80" xmlns="http://www.w3.org/2000/svg" xmlns:xlink="http://www.w3.org/1999/xlink" xml:space="preserve" overflow="hidden"><g transform="translate(-34 -38)"><path d="M18.8378 71.7897C18.6233 71.7897 18.4516 71.9471 18.4516 72.1616 18.4516 72.3762 18.6233 72.5478 18.8378 72.5478 19.0524 72.5478 19.2097 72.3762 19.2097 72.1616 19.2097 71.9471 19.0524 71.7897 18.8378 71.7897Z" fill="#FFFFFF" transform="matrix(1.00563 0 0 1 34.0665 38)"/><path d="M40.9655 65.0527C40.708 65.0527 40.4935 65.253 40.4935 65.5248 40.4935 65.7822 40.6937 65.9968 40.9655 65.9968 41.223 65.9968 41.4375 65.7822 41.4375 65.5248 41.4375 65.253 41.223 65.0527 40.9655 65.0527Z" fill="#FFFFFF" transform="matrix(1.00563 0 0 1 34.0665 38)"/><path d="M29.9803 73.3345C29.2365 73.3345 28.4928 73.6206 27.8634 74.1212L27.8634 73.4346 27.234 73.4346 27.234 78.0976 27.8634 78.0976 27.8634 74.6362C28.3926 74.1498 29.1078 73.8638 29.7515 73.8638 30.6383 73.8638 31.1389 74.3787 31.1389 75.2655L31.1389 78.0976 31.7683 78.0976 31.7683 75.1082C31.7683 73.9925 31.096 73.3345 29.9803 73.3345Z" fill="#FFFFFF" transform="matrix(1.00563 0 0 1 34.0665 38)"/><path d="M23.229 73.3345C21.8273 73.3345 20.6973 74.4073 20.6973 75.7661 20.6973 77.125 21.813 78.1977 23.229 78.1977 24.6165 78.2263 25.7894 77.1107 25.7608 75.7661 25.7894 74.4216 24.6165 73.3059 23.229 73.3345ZM23.229 77.6399C22.1563 77.6399 21.3124 76.796 21.3124 75.7518 21.3124 74.7077 22.1563 73.8638 23.229 73.8638 24.3018 73.8638 25.1457 74.7077 25.1457 75.7518 25.1457 76.796 24.3018 77.6399 23.229 77.6399Z" fill="#FFFFFF" transform="matrix(1.00563 0 0 1 34.0665 38)"/><path d="M16.349 77.6256C15.7483 77.6256 15.2619 77.1822 15.2619 76.4813L15.2619 73.9496 16.7781 73.9496 16.7781 73.4203 15.2619 73.4203 15.2619 72.0329 14.6326 72.0329 14.6326 73.4203 13.7744 73.4203 13.7744 73.9496 14.6469 73.9496 14.6469 76.5671C14.6469 77.5684 15.3048 78.1834 16.1917 78.1834 16.5063 78.1834 16.8496 78.0976 17.1929 77.926L17.0785 77.454C16.8496 77.5827 16.6065 77.6256 16.349 77.6256Z" fill="#FFFFFF" transform="matrix(1.00563 0 0 1 34.0665 38)"/><path d="M18.5232 73.4203 19.1525 73.4203 19.1525 78.0833 18.5232 78.0833Z" fill="#FFFFFF" transform="matrix(1.00563 0 0 1 34.0665 38)"/><path d="M14.2321 65.5105C14.2321 65.253 14.0318 65.0384 13.7601 65.0384 13.5026 65.0384 13.288 65.2387 13.288 65.5105 13.288 65.7679 13.4883 65.9825 13.7601 65.9825 14.0318 65.9825 14.2321 65.7679 14.2321 65.5105Z" fill="#FFFFFF" transform="matrix(1.00563 0 0 1 34.0665 38)"/><path d="M35.4872 73.3345C34.7291 73.3345 34.0569 73.5491 33.4418 73.9639L33.6707 74.4359C34.1999 74.0497 34.7577 73.8638 35.3585 73.8638 36.3025 73.8638 36.8031 74.3072 36.8031 75.1368L36.8031 75.2369 34.9723 75.2369C33.7851 75.2369 33.0842 75.7661 33.0842 76.6959 33.0842 77.597 33.7708 78.1977 34.9151 78.1977 35.6016 78.1977 36.231 77.9832 36.8031 77.5684L36.8031 78.1119 37.4325 78.1119 37.4325 75.0939C37.4325 73.9639 36.7316 73.3345 35.4872 73.3345ZM36.8031 77.1107C36.2596 77.4683 35.6303 77.6542 35.0152 77.6542 34.1713 77.6542 33.685 77.2823 33.685 76.653 33.685 76.0236 34.1856 75.6803 35.0438 75.6803L36.8031 75.6803 36.8031 77.1107Z" fill="#FFFFFF" transform="matrix(1.00563 0 0 1 34.0665 38)"/><path d="M23.4293 65.5105C23.4293 65.7679 23.6295 65.9825 23.9013 65.9825 24.1588 65.9825 24.3733 65.7679 24.3733 65.5105 24.3733 65.253 24.1731 65.0384 23.9013 65.0384 23.6438 65.0527 23.4293 65.253 23.4293 65.5105Z" fill="#FFFFFF" transform="matrix(1.00563 0 0 1 34.0665 38)"/><path d="M21.6842 65.5105C21.6842 65.7679 21.8988 65.9825 22.1563 65.9825 22.4137 65.9825 22.614 65.7679 22.614 65.5105 22.614 65.253 22.4137 65.0384 22.1563 65.0384 21.8845 65.0527 21.6842 65.253 21.6842 65.5105Z" fill="#FFFFFF" transform="matrix(1.00563 0 0 1 34.0665 38)"/><path d="M39.6782 65.5105C39.6782 65.253 39.4779 65.0384 39.2205 65.0384 38.9487 65.0384 38.7484 65.2387 38.7484 65.5105 38.7484 65.7679 38.963 65.9825 39.2205 65.9825 39.4779 65.9825 39.6782 65.7679 39.6782 65.5105Z" fill="#FFFFFF" transform="matrix(1.00563 0 0 1 34.0665 38)"/><path d="M39.0488 71.5609 39.6782 71.5609 39.6782 78.0976 39.0488 78.0976Z" fill="#FFFFFF" transform="matrix(1.00563 0 0 1 34.0665 38)"/><path d="M20.9405 64.0801C20.9548 64.0801 20.9548 64.0801 20.9405 64.0801 20.9548 64.0801 20.9548 64.0801 20.9405 64.0801L20.9405 64.0801C21.6986 64.0801 22.4137 63.8941 23.0002 63.5652 23.6295 63.9085 24.3018 64.0801 25.0599 64.0801L25.0742 64.0801C25.0742 64.0801 25.0742 64.0801 25.0742 64.0801 25.0742 64.0801 25.0742 64.0801 25.0742 64.0801L25.0885 64.0801C25.9467 64.0801 26.8765 63.8512 27.4629 63.5223L27.4629 59.5602 26.8335 59.5602 26.8335 63.0932C26.3901 63.322 25.7608 63.4507 25.0885 63.4507L25.0885 63.4507C24.4162 63.4507 23.8441 63.3077 23.3435 63.0359L23.3435 59.5602 22.7141 59.5602 22.7141 63.0359C22.2135 63.3077 21.6413 63.4507 20.9691 63.4507L20.9691 63.4507C20.4255 63.4507 19.9535 63.3506 19.5816 63.1504L19.5816 62.6068C19.5816 61.2051 18.8235 60.59 17.2072 60.1752L16.535 60.0036 19.4243 57.7007 19.0953 57.2859 15.8055 59.9321 15.9628 60.447 16.9641 60.7188C18.423 61.105 18.9666 61.5341 18.9666 62.6354L18.9666 63.1361C18.4659 63.3363 17.7365 63.465 16.9927 63.465L15.1332 63.465 14.9759 63.465C14.3036 63.465 13.7315 63.322 13.2308 63.0502L13.2308 59.5745 12.5586 59.5745 12.5586 63.0502C12.0579 63.322 11.4858 63.465 10.8135 63.465L10.6705 63.465 10.6705 63.465 8.62507 63.465 8.33899 63.465 6.29358 63.465 5.99321 63.465 4.44842 63.465 4.44842 59.8891C4.00501 59.5888 3.24692 59.3313 2.50313 59.3313 1.07277 59.317 0 60.2038 0 61.72 0 63.179 1.05847 64.0801 2.54604 64.0801L6.13624 64.0801C6.13624 64.0801 6.13624 64.0801 6.13624 64.0801 6.13624 64.0801 6.13624 64.0801 6.13624 64.0801L8.46773 64.0801C8.46773 64.0801 8.46773 64.0801 8.46773 64.0801 8.46773 64.0801 8.46773 64.0801 8.46773 64.0801L10.7992 64.0801C10.7992 64.0801 10.7992 64.0801 10.7992 64.0801L10.8135 64.0801C11.5573 64.0801 12.2725 63.8941 12.8732 63.5652 13.5026 63.9085 14.1749 64.0801 14.933 64.0801L14.9473 64.0801C14.9473 64.0801 14.9473 64.0801 14.9473 64.0801 14.9473 64.0801 14.9473 64.0801 14.9473 64.0801L16.8925 64.0801C17.7508 64.0801 18.6233 63.9514 19.2955 63.6939 19.8248 63.9514 20.3683 64.0801 20.9405 64.0801L20.9405 64.0801ZM3.80476 63.4507 2.48883 63.4507C1.93099 63.4507 1.48757 63.3077 1.12998 63.0073 0.786698 62.707 0.600751 62.2778 0.600751 61.72 0.600751 61.1336 0.772394 60.6901 1.12998 60.3755 1.47327 60.0751 1.91668 59.9178 2.44591 59.9178 2.93224 59.9178 3.43286 60.0465 3.80476 60.2753L3.80476 63.4507Z" fill="#FFFFFF" transform="matrix(1.00563 0 0 1 34.0665 38)"/><path d="M53.9532 57.2716 54.5825 57.2716 54.5825 64.0801 53.9532 64.0801Z" fill="#FFFFFF" transform="matrix(1.00563 0 0 1 34.0665 38)"/><path d="M160.329 57.7865C160.329 58.044 160.529 58.2585 160.801 58.2585 161.058 58.2585 161.273 58.044 161.273 57.7865 161.273 57.5291 161.073 57.3145 160.801 57.3145 160.529 57.3145 160.329 57.5291 160.329 57.7865Z" fill="#FFFFFF" transform="matrix(1.00563 0 0 1 34.0665 38)"/><path d="M92.7445 57.715 94.5611 57.715 94.5611 57.243 94.0175 57.243C93.6027 57.243 93.3882 57.0141 93.3882 56.7281 93.3882 56.442 93.5884 56.2417 93.8602 56.2417 93.9889 56.2417 94.1463 56.2989 94.2178 56.3562L94.4752 56.0558C94.3179 55.9127 94.0604 55.8126 93.803 55.8126 93.3166 55.8126 92.9591 56.1702 92.9591 56.6279 92.9591 56.8568 93.0449 57.0713 93.2165 57.2287L92.7445 57.2287 92.7445 57.715Z" fill="#FFFFFF" transform="matrix(1.00563 0 0 1 34.0665 38)"/><path d="M158.57 57.7865C158.57 58.044 158.784 58.2585 159.042 58.2585 159.299 58.2585 159.499 58.044 159.499 57.7865 159.499 57.5291 159.299 57.3145 159.042 57.3145 158.784 57.3145 158.57 57.5291 158.57 57.7865Z" fill="#FFFFFF" transform="matrix(1.00563 0 0 1 34.0665 38)"/><path d="M77.1393 27.4057 77.3252 27.4057 89.7693 41.8952 98.0654 41.8952 98.0654 18.9666 91.1854 18.9666 91.1854 33.2272 90.9995 33.2272 78.7413 18.9666 70.3022 18.9666 70.3022 41.8952 77.1393 41.8952Z" fill="#FFFFFF" transform="matrix(1.00563 0 0 1 34.0665 38)"/><path d="M83.0467 57.7579C83.0467 58.0154 83.2469 58.2299 83.5187 58.2299 83.7761 58.2299 83.9907 58.0154 83.9907 57.7579 83.9907 57.4861 83.7905 57.2859 83.5187 57.2859 83.2612 57.2859 83.0467 57.4861 83.0467 57.7579Z" fill="#FFFFFF" transform="matrix(1.00563 0 0 1 34.0665 38)"/><path d="M90.2986 58.0297C90.2986 58.2871 90.4988 58.5017 90.7706 58.5017 91.0281 58.5017 91.2426 58.2871 91.2426 58.0297 91.2426 57.7579 91.0424 57.5577 90.7706 57.5577 90.4988 57.5577 90.2986 57.7722 90.2986 58.0297Z" fill="#FFFFFF" transform="matrix(1.00563 0 0 1 34.0665 38)"/><path d="M62.1348 58.2442C62.3923 58.2442 62.6068 58.0297 62.6068 57.7722 62.6068 57.5147 62.4066 57.3002 62.1348 57.3002 61.8773 57.3002 61.6628 57.5004 61.6628 57.7722 61.6628 58.0297 61.863 58.2442 62.1348 58.2442Z" fill="#FFFFFF" transform="matrix(1.00563 0 0 1 34.0665 38)"/><path d="M191.854 58.373C192.112 58.373 192.298 58.1727 192.298 57.9296 192.298 57.6721 192.097 57.4861 191.854 57.4861 191.597 57.4861 191.411 57.6864 191.411 57.9296 191.396 58.1727 191.597 58.373 191.854 58.373Z" fill="#FFFFFF" transform="matrix(1.00563 0 0 1 34.0665 38)"/><path d="M192.927 37.0892C192.04 37.4611 190.624 37.6471 188.679 37.6471 186.705 37.6471 185.217 37.4182 184.23 36.9462 183.243 36.4742 182.628 35.573 182.399 34.2428L174.075 34.2428C174.161 36.4742 174.747 38.1906 175.848 39.3921 176.95 40.6079 178.509 41.4375 180.511 41.9095 182.514 42.3815 185.103 42.6104 188.278 42.6104 191.582 42.6104 194.257 42.3959 196.331 41.9524 198.405 41.509 199.979 40.7223 201.08 39.5923 202.167 38.4624 202.725 36.8461 202.725 34.772 202.725 32.5264 202.067 30.8385 200.737 29.7229 199.421 28.6072 197.432 27.9349 194.786 27.7061L185.832 26.9337C184.788 26.8335 184.03 26.6476 183.558 26.3901 183.1 26.1327 182.871 25.7322 182.871 25.1743 182.871 24.4878 183.258 23.9728 184.016 23.6152 184.788 23.2576 186.061 23.086 187.849 23.086 189.637 23.086 190.996 23.3006 191.94 23.7154 192.884 24.1302 193.456 24.8453 193.642 25.8466L201.924 25.8466C201.824 23.0002 200.608 21.012 198.291 19.882 195.974 18.752 192.598 18.1942 188.164 18.1942 183.73 18.1942 180.368 18.752 178.08 19.8534 175.791 20.9548 174.647 22.8714 174.647 25.5891 174.647 27.7919 175.319 29.4082 176.649 30.438 177.98 31.4679 179.996 32.1259 182.686 32.3976L191.353 33.2702C192.283 33.356 192.998 33.5562 193.499 33.8709 194 34.1856 194.257 34.6719 194.257 35.3299 194.257 36.1309 193.814 36.7173 192.927 37.0892Z" fill="#FFFFFF" transform="matrix(1.00563 0 0 1 34.0665 38)"/><path d="M191.024 58.659C190.767 58.659 190.567 58.8593 190.567 59.1024 190.567 59.3599 190.767 59.5459 191.024 59.5459 191.282 59.5459 191.468 59.3456 191.468 59.1024 191.454 58.8593 191.268 58.659 191.024 58.659Z" fill="#FFFFFF" transform="matrix(1.00563 0 0 1 34.0665 38)"/><path d="M143.622 25.4461 143.808 25.4461 150.674 41.8952 156.281 41.8952 163.004 25.675 163.19 25.675 163.19 41.8952 170.37 41.8952 170.37 18.9666 158.87 18.9666 153.606 32.6694 153.42 32.6694 148.057 18.9666 136.785 18.9666 136.785 41.8952 143.622 41.8952Z" fill="#FFFFFF" transform="matrix(1.00563 0 0 1 34.0665 38)"/><path d="M192.698 59.5602C192.955 59.5602 193.141 59.3742 193.141 59.1168 193.141 58.8593 192.955 58.6733 192.698 58.6733 192.441 58.6733 192.24 58.8736 192.24 59.1168 192.24 59.3742 192.441 59.5602 192.698 59.5602Z" fill="#FFFFFF" transform="matrix(1.00563 0 0 1 34.0665 38)"/><path d="M35.2441 0 21.2694 10.7563 35.2441 21.5269Z" fill="#FFFFFF" transform="matrix(1.00563 0 0 1 34.0665 38)"/><path d="M1.15859 57.7865C1.15859 58.044 1.37314 58.2585 1.63061 58.2585 1.88807 58.2585 2.08832 58.044 2.08832 57.7865 2.08832 57.5291 1.88807 57.3145 1.63061 57.3145 1.35884 57.3145 1.15859 57.5291 1.15859 57.7865Z" fill="#FFFFFF" transform="matrix(1.00563 0 0 1 34.0665 38)"/><path d="M60.3898 58.2442C60.6472 58.2442 60.8475 58.0297 60.8475 57.7722 60.8475 57.5147 60.6472 57.3002 60.3898 57.3002 60.118 57.3002 59.9178 57.5004 59.9178 57.7722 59.9035 58.0297 60.118 58.2442 60.3898 58.2442Z" fill="#FFFFFF" transform="matrix(1.00563 0 0 1 34.0665 38)"/><path d="M10.7992 73.3345C10.0411 73.3345 9.36885 73.5491 8.7538 73.9639L8.98266 74.4359C9.51189 74.0497 10.0697 73.8638 10.6705 73.8638 11.6145 73.8638 12.1151 74.3072 12.1151 75.1368L12.1151 75.2369 10.2843 75.2369C9.09709 75.2369 8.39621 75.7661 8.39621 76.6959 8.39621 77.597 9.08278 78.1977 10.2271 78.1977 10.9136 78.1977 11.543 77.9832 12.1151 77.5684L12.1151 78.1119 12.7445 78.1119 12.7445 75.0939C12.7445 73.9639 12.0436 73.3345 10.7992 73.3345ZM12.1294 77.1107C11.5859 77.4683 10.9566 77.6542 10.3415 77.6542 9.49759 77.6542 9.01126 77.2823 9.01126 76.653 9.01126 76.0236 9.51189 75.6803 10.3701 75.6803L12.1294 75.6803 12.1294 77.1107Z" fill="#FFFFFF" transform="matrix(1.00563 0 0 1 34.0665 38)"/><path d="M13.9603 16.3919 0 27.1482 13.9603 37.9045Z" fill="#FFFFFF" transform="matrix(1.00563 0 0 1 34.0665 38)"/><path d="M6.10763 77.1679 1.83086 71.5609 1.08707 71.5609 1.08707 78.0833 1.75934 78.0833 1.75934 72.4763 6.02181 78.0833 6.7656 78.0833 6.7656 71.5609 6.10763 71.5609Z" fill="#FFFFFF" transform="matrix(1.00563 0 0 1 34.0665 38)"/><path d="M2.91793 57.7865C2.91793 58.044 3.11818 58.2585 3.38995 58.2585 3.64742 58.2585 3.86197 58.044 3.86197 57.7865 3.86197 57.5291 3.66172 57.3145 3.38995 57.3145 3.11818 57.3145 2.91793 57.5291 2.91793 57.7865Z" fill="#FFFFFF" transform="matrix(1.00563 0 0 1 34.0665 38)"/><path d="M46.1434 72.1044C46.9587 72.1044 47.7168 72.4763 48.2317 73.0771L48.7753 72.7052C48.1459 71.9328 47.1876 71.4751 46.1291 71.4751 44.2982 71.4321 42.6819 73.0198 42.7105 74.8364 42.6676 76.653 44.2982 78.2263 46.1291 78.1977 47.1876 78.1977 48.1316 77.74 48.7753 76.9676L48.2317 76.5814C47.7025 77.1822 46.9587 77.5541 46.1434 77.5541 44.6558 77.5827 43.3971 76.3097 43.4257 74.8364 43.3971 73.3345 44.6701 72.0758 46.1434 72.1044Z" fill="#FFFFFF" transform="matrix(1.00563 0 0 1 34.0665 38)"/><path d="M42.5532 3.9764 42.5532 25.5033 56.5135 14.747Z" fill="#FFFFFF" transform="matrix(1.00563 0 0 1 34.0665 38)"/><path d="M26.6476 58.0297C26.6476 58.2871 26.8478 58.5017 27.1196 58.5017 27.3771 58.5017 27.5916 58.2871 27.5916 58.0297 27.5916 57.7579 27.3914 57.5577 27.1196 57.5577 26.8478 57.5577 26.6476 57.7722 26.6476 58.0297Z" fill="#FFFFFF" transform="matrix(1.00563 0 0 1 34.0665 38)"/><path d="M21.2694 20.3683 21.2694 41.8952 35.2441 31.1389Z" fill="#FFFFFF" transform="matrix(1.00563 0 0 1 34.0665 38)"/><path d="M12.4727 65.5105C12.4727 65.253 12.2725 65.0384 12.015 65.0384 11.7433 65.0384 11.543 65.2387 11.543 65.5105 11.543 65.7679 11.7576 65.9825 12.015 65.9825 12.2725 65.9825 12.4727 65.7679 12.4727 65.5105Z" fill="#FFFFFF" transform="matrix(1.00563 0 0 1 34.0665 38)"/><path d="M129.834 73.3345C129.104 73.3345 128.346 73.6206 127.717 74.1212L127.717 71.5609 127.087 71.5609 127.087 78.0976 127.717 78.0976 127.717 74.6362C128.246 74.1498 128.961 73.8638 129.605 73.8638 130.492 73.8638 130.992 74.3787 130.992 75.2655L130.992 78.0976 131.622 78.0976 131.622 75.1082C131.607 73.9925 130.949 73.3345 129.834 73.3345Z" fill="#FFFFFF" transform="matrix(1.00563 0 0 1 34.0665 38)"/><path d="M152.619 57.2716 153.249 57.2716 153.249 64.0801 152.619 64.0801Z" fill="#FFFFFF" transform="matrix(1.00563 0 0 1 34.0665 38)"/><path d="M147.871 64.0801C147.871 64.0801 147.871 64.0801 147.871 64.0801L147.871 64.0801C148.772 64.0801 149.658 63.7654 150.259 63.322L150.259 57.2573 149.63 57.2573 149.63 63.0216C149.158 63.2791 148.486 63.4364 147.885 63.4364L147.742 63.4364 147.742 63.4364 146.211 63.4364 146.211 60.1466C145.582 59.7747 144.938 59.6031 144.252 59.6031 142.807 59.6031 141.749 60.4756 141.749 61.8487 141.749 63.1933 142.75 64.0801 144.323 64.0801L145.568 64.0801C145.51 65.2816 144.852 65.868 143.608 65.868 143.036 65.868 142.435 65.725 142.092 65.582L141.992 66.1827C142.435 66.3687 143.022 66.4688 143.594 66.4688 145.139 66.4688 146.111 65.6964 146.197 64.0801L147.871 64.0801C147.871 64.0801 147.871 64.0801 147.871 64.0801ZM145.553 63.4507 144.209 63.4507C143.68 63.4507 143.222 63.3077 142.879 63.0359 142.535 62.7499 142.364 62.3637 142.364 61.8487 142.364 61.3338 142.535 60.9333 142.879 60.6472 143.236 60.3612 143.665 60.2181 144.209 60.2181 144.709 60.2181 145.167 60.3326 145.568 60.5614L145.568 63.4507Z" fill="#FFFFFF" transform="matrix(1.00563 0 0 1 34.0665 38)"/><path d="M149.816 77.6399C148.786 77.6399 147.942 76.796 147.942 75.7518 147.942 74.7077 148.786 73.8638 149.816 73.8638 150.402 73.8638 150.874 74.064 151.26 74.4788L151.733 74.1927C151.26 73.6492 150.56 73.3202 149.816 73.3202 148.486 73.2916 147.298 74.4359 147.327 75.7518 147.298 77.0678 148.486 78.2121 149.816 78.1834 150.603 78.1834 151.318 77.8259 151.79 77.2394L151.303 76.9533C150.946 77.3967 150.431 77.6399 149.816 77.6399Z" fill="#FFFFFF" transform="matrix(1.00563 0 0 1 34.0665 38)"/><path d="M158.87 71.5609 159.499 71.5609 159.499 78.0976 158.87 78.0976Z" fill="#FFFFFF" transform="matrix(1.00563 0 0 1 34.0665 38)"/><path d="M155.308 73.3345C154.55 73.3345 153.878 73.5491 153.263 73.9639L153.492 74.4359C154.021 74.0497 154.579 73.8638 155.18 73.8638 156.124 73.8638 156.624 74.3072 156.624 75.1368L156.624 75.2369 154.793 75.2369C153.606 75.2369 152.905 75.7661 152.905 76.6959 152.905 77.597 153.592 78.1977 154.736 78.1977 155.423 78.1977 156.052 77.9832 156.624 77.5684L156.624 78.1119 157.254 78.1119 157.254 75.0939C157.254 73.9639 156.553 73.3345 155.308 73.3345ZM156.639 77.1107C156.095 77.4683 155.466 77.6542 154.851 77.6542 154.007 77.6542 153.52 77.2823 153.52 76.653 153.52 76.0236 154.021 75.6803 154.879 75.6803L156.639 75.6803 156.639 77.1107Z" fill="#FFFFFF" transform="matrix(1.00563 0 0 1 34.0665 38)"/><path d="M165.664 74.536 164.849 74.3072C163.633 73.9925 163.304 73.7493 163.304 73.2201 163.304 72.4763 163.962 72.0615 164.949 72.0615 165.693 72.0615 166.551 72.3047 167.223 72.6909L167.538 72.1473C166.837 71.7325 165.893 71.4608 164.992 71.4608 164.277 71.4608 163.69 71.6181 163.261 71.9328 162.818 72.2475 162.603 72.6766 162.603 73.263 162.603 74.1784 163.161 74.5932 164.706 74.9651L165.535 75.1654C166.68 75.4658 167.023 75.6803 167.023 76.2954 167.023 77.1536 166.308 77.5827 165.221 77.5827 164.348 77.5827 163.347 77.2966 162.632 76.8532L162.317 77.3681C163.061 77.8831 164.148 78.1834 165.164 78.1834 165.936 78.1834 166.565 78.0118 167.023 77.6828 167.495 77.3538 167.738 76.8818 167.738 76.2668 167.695 75.2083 167.066 74.9222 165.664 74.536Z" fill="#FFFFFF" transform="matrix(1.00563 0 0 1 34.0665 38)"/><path d="M141.648 73.3345C140.905 73.3345 140.161 73.6206 139.532 74.1212L139.532 73.4346 138.902 73.4346 138.902 78.0976 139.532 78.0976 139.532 74.6362C140.061 74.1498 140.776 73.8638 141.42 73.8638 142.306 73.8638 142.807 74.3787 142.807 75.2655L142.807 78.0976 143.436 78.0976 143.436 75.1082C143.436 73.9925 142.764 73.3345 141.648 73.3345Z" fill="#FFFFFF" transform="matrix(1.00563 0 0 1 34.0665 38)"/><path d="M145.468 71.7897C145.253 71.7897 145.081 71.9471 145.081 72.1616 145.081 72.3762 145.253 72.5478 145.468 72.5478 145.682 72.5478 145.839 72.3762 145.839 72.1616 145.839 71.9471 145.682 71.7897 145.468 71.7897Z" fill="#FFFFFF" transform="matrix(1.00563 0 0 1 34.0665 38)"/><path d="M135.341 73.3345C134.583 73.3345 133.91 73.5491 133.295 73.9639L133.524 74.4359C134.053 74.0497 134.611 73.8638 135.212 73.8638 136.156 73.8638 136.657 74.3072 136.657 75.1368L136.657 75.2369 134.826 75.2369C133.638 75.2369 132.938 75.7661 132.938 76.6959 132.938 77.597 133.624 78.1977 134.768 78.1977 135.455 78.1977 136.084 77.9832 136.657 77.5684L136.657 78.1119 137.286 78.1119 137.286 75.0939C137.286 73.9639 136.571 73.3345 135.341 73.3345ZM136.657 77.1107C136.113 77.4683 135.484 77.6542 134.869 77.6542 134.025 77.6542 133.538 77.2823 133.538 76.653 133.538 76.0236 134.039 75.6803 134.897 75.6803L136.657 75.6803 136.657 77.1107Z" fill="#FFFFFF" transform="matrix(1.00563 0 0 1 34.0665 38)"/><path d="M145.153 73.4203 145.782 73.4203 145.782 78.0833 145.153 78.0833Z" fill="#FFFFFF" transform="matrix(1.00563 0 0 1 34.0665 38)"/><path d="M200.722 75.5373 200.136 75.3799C199.249 75.1511 199.035 74.9937 199.035 74.5932 199.035 74.0783 199.421 73.8065 200.15 73.8065 200.708 73.8065 201.323 73.9782 201.781 74.2643L202.01 73.8208C201.523 73.5062 200.837 73.3202 200.179 73.3202 199.092 73.3202 198.434 73.8208 198.434 74.6362 198.434 75.2512 198.791 75.5516 199.95 75.8663L200.579 76.0379C201.395 76.2668 201.581 76.4098 201.581 76.8532 201.581 77.3967 201.137 77.6971 200.336 77.6971 199.678 77.6971 198.977 77.4969 198.448 77.1536L198.219 77.5827C198.777 77.9403 199.549 78.1691 200.293 78.1691 201.452 78.1691 202.153 77.6685 202.153 76.8103 202.167 76.138 201.824 75.8377 200.722 75.5373Z" fill="#FFFFFF" transform="matrix(1.00563 0 0 1 34.0665 38)"/><path d="M191.883 63.5509C192.34 63.9085 192.841 64.0801 193.399 64.0801 193.928 64.0801 194.486 63.8941 194.929 63.5652 195.502 63.8941 196.202 64.0801 196.932 64.0801L196.946 64.0801C196.946 64.0801 196.946 64.0801 196.946 64.0801 196.946 64.0801 196.946 64.0801 196.946 64.0801L196.96 64.0801C197.847 64.0801 198.748 63.7654 199.335 63.322L199.335 57.2573 198.706 57.2573 198.706 63.0216C198.234 63.2791 197.561 63.4364 196.96 63.4364L196.946 63.4364C196.274 63.4364 195.702 63.2934 195.201 63.0216L195.201 60.2896 194.572 60.2896 194.572 63.0216C194.228 63.2934 193.814 63.4364 193.385 63.4364 192.941 63.4364 192.541 63.2934 192.183 63.0216L192.183 60.7331 191.554 60.7331 191.554 63.0216C191.21 63.2934 190.781 63.4364 190.367 63.4364 189.923 63.4364 189.523 63.2934 189.165 63.0216L189.165 60.7331 188.536 60.7331 188.536 63.0216C188.021 63.2791 187.42 63.4507 186.791 63.4507L186.648 63.4507 186.648 63.4507 184.602 63.4507 184.302 63.4507 182.256 63.4507 182.256 63.4507 182.113 63.4507C181.47 63.4507 180.812 63.3077 180.34 63.0073L180.34 59.6174 179.71 59.6174 179.71 63.8798C179.71 65.2101 179.167 65.8537 177.965 65.8537 177.822 65.8537 177.679 65.8394 177.522 65.8251L177.393 66.4545C177.579 66.4688 177.779 66.4831 177.98 66.4831 179.553 66.4831 180.34 65.6106 180.34 63.8798L180.34 63.6796C180.883 63.9514 181.484 64.0944 182.099 64.0944L182.113 64.0944C182.113 64.0944 182.113 64.0944 182.113 64.0944L184.445 64.0944C184.445 64.0944 184.445 64.0944 184.445 64.0944 184.445 64.0944 184.445 64.0944 184.445 64.0944L186.776 64.0944C186.776 64.0944 186.776 64.0944 186.776 64.0944L186.791 64.0944C187.606 64.0944 188.393 63.8512 188.836 63.5509 189.179 63.8512 189.751 64.0944 190.381 64.0944 190.924 64.0801 191.425 63.9085 191.883 63.5509Z" fill="#FFFFFF" transform="matrix(1.00563 0 0 1 34.0665 38)"/><path d="M195.33 73.3345C194.543 73.3345 193.814 73.6206 193.17 74.1641 192.898 73.6349 192.383 73.3345 191.711 73.3345 190.996 73.3345 190.409 73.5777 189.737 74.1355L189.737 73.4203 189.108 73.4203 189.108 78.0833 189.737 78.0833 189.737 74.5503C190.338 74.0211 190.824 73.8352 191.468 73.8352 192.255 73.8352 192.755 74.3501 192.755 75.2512L192.755 78.0833 193.385 78.0833 193.385 75.3084C193.385 75.0367 193.342 74.7792 193.284 74.5503 193.814 74.0926 194.443 73.8352 195.115 73.8352 195.902 73.8352 196.388 74.3501 196.388 75.2512L196.388 78.0833 197.018 78.0833 197.018 75.0939C197.032 73.9782 196.345 73.3345 195.33 73.3345Z" fill="#FFFFFF" transform="matrix(1.00563 0 0 1 34.0665 38)"/><path d="M140.132 64.0801 140.132 61.863C140.132 60.2896 139.288 59.4028 137.887 59.4028 136.585 59.4028 135.527 60.1609 134.411 61.4196L134.411 57.4575 133.782 57.4575 133.782 63.4364 132.022 63.4364C131.35 63.4364 130.778 63.2934 130.277 63.0216L130.277 59.5459 129.648 59.5459 129.648 63.0216C129.147 63.2934 128.575 63.4364 127.903 63.4364L127.76 63.4364 127.76 63.4364 125.714 63.4364 125.714 63.4364 125.571 63.4364C124.899 63.4364 124.327 63.2934 123.826 63.0216L123.826 59.5459 123.197 59.5459 123.197 63.0216C122.696 63.2934 122.124 63.4364 121.452 63.4364L121.309 63.4364 121.309 63.4364 119.263 63.4364 118.963 63.4364 116.918 63.4364 116.617 63.4364 114.572 63.4364 114.286 63.4364 112.24 63.4364 111.94 63.4364 110.381 63.4364 110.381 59.8605C109.937 59.5602 109.179 59.3027 108.436 59.3027 107.019 59.3027 105.947 60.1752 105.947 61.7057 105.947 63.1647 107.005 64.0658 108.493 64.0658L112.083 64.0658C112.083 64.0658 112.083 64.0658 112.083 64.0658 112.083 64.0658 112.083 64.0658 112.083 64.0658L114.429 64.0658C114.429 64.0658 114.429 64.0658 114.429 64.0658 114.429 64.0658 114.429 64.0658 114.429 64.0658L116.76 64.0658C116.76 64.0658 116.76 64.0658 116.76 64.0658 116.76 64.0658 116.76 64.0658 116.76 64.0658L119.092 64.0658C119.092 64.0658 119.092 64.0658 119.092 64.0658 119.092 64.0658 119.092 64.0658 119.092 64.0658L121.423 64.0658C121.423 64.0658 121.423 64.0658 121.423 64.0658L121.438 64.0658C122.181 64.0658 122.896 63.8798 123.497 63.5509 124.127 63.8941 124.799 64.0658 125.557 64.0658L125.571 64.0658C125.571 64.0658 125.571 64.0658 125.571 64.0658L127.903 64.0658C127.903 64.0658 127.903 64.0658 127.903 64.0658L127.917 64.0658C128.661 64.0658 129.376 63.8798 129.977 63.5509 130.606 63.8941 131.278 64.0658 132.036 64.0658L132.051 64.0658C132.051 64.0658 132.051 64.0658 132.051 64.0658L140.132 64.0658ZM134.411 62.2635C135.555 60.8189 136.585 60.0179 137.787 60.0179 138.902 60.0179 139.489 60.776 139.489 61.9632L139.489 63.4507 134.397 63.4507 134.397 62.2635ZM109.751 63.4507 108.436 63.4507C107.892 63.4507 107.434 63.3077 107.077 63.0073 106.733 62.707 106.547 62.2778 106.547 61.72 106.547 61.1336 106.719 60.6901 107.077 60.3755 107.42 60.0751 107.863 59.9178 108.393 59.9178 108.879 59.9178 109.38 60.0465 109.751 60.2753L109.751 63.4507Z" fill="#FFFFFF" transform="matrix(1.00563 0 0 1 34.0665 38)"/><path d="M201.681 57.2716 202.31 57.2716 202.31 64.0801 201.681 64.0801Z" fill="#FFFFFF" transform="matrix(1.00563 0 0 1 34.0665 38)"/><path d="M170.57 64.0801C170.57 64.0801 170.57 64.0801 170.57 64.0801 170.57 64.0801 170.57 64.0801 170.57 64.0801L172.902 64.0801C172.902 64.0801 172.902 64.0801 172.902 64.0801 172.902 64.0801 172.902 64.0801 172.902 64.0801L174.776 64.0801C175.748 64.0801 176.778 63.8941 177.45 63.5652L177.45 62.5925C177.45 61.1908 176.707 60.59 175.076 60.1609L174.418 59.9893 177.307 57.6864 176.978 57.2716 173.689 59.9178 173.832 60.4327 174.833 60.7044C176.32 61.1193 176.807 61.4911 176.835 62.6068L176.835 63.1075C176.32 63.322 175.591 63.4507 174.847 63.4507L172.759 63.4507 172.759 63.4507 170.713 63.4507 170.413 63.4507 168.368 63.4507 168.067 63.4507 166.022 63.4507 165.721 63.4507 163.676 63.4507 163.376 63.4507 161.817 63.4507 161.817 59.8748C161.373 59.5745 160.615 59.317 159.871 59.317 158.455 59.317 157.382 60.1895 157.382 61.72 157.382 63.179 158.441 64.0801 159.928 64.0801L163.519 64.0801C163.519 64.0801 163.519 64.0801 163.519 64.0801 163.519 64.0801 163.519 64.0801 163.519 64.0801L165.85 64.0801C165.85 64.0801 165.85 64.0801 165.85 64.0801 165.85 64.0801 165.85 64.0801 165.85 64.0801L168.182 64.0801C168.182 64.0801 168.182 64.0801 168.182 64.0801 168.182 64.0801 168.182 64.0801 168.182 64.0801L170.57 64.0801ZM161.216 63.4507 159.9 63.4507C159.342 63.4507 158.899 63.3077 158.541 63.0073 158.198 62.707 158.012 62.2778 158.012 61.72 158.012 61.1336 158.183 60.6901 158.541 60.3755 158.884 60.0751 159.328 59.9178 159.857 59.9178 160.343 59.9178 160.844 60.0465 161.216 60.2753L161.216 63.4507Z" fill="#FFFFFF" transform="matrix(1.00563 0 0 1 34.0665 38)"/><path d="M170.871 77.454 169.111 73.4203 168.453 73.4203 170.585 78.2407 170.485 78.4695C170.113 79.2276 169.769 79.4994 169.254 79.4994 169.026 79.4994 168.811 79.4565 168.596 79.3706L168.411 79.8284C168.74 79.9428 169.054 80 169.326 80 170.098 80 170.613 79.5852 171.057 78.5696L173.231 73.4346 172.573 73.4346 170.871 77.454Z" fill="#FFFFFF" transform="matrix(1.00563 0 0 1 34.0665 38)"/><path d="M176.378 75.5373 175.791 75.3799C174.904 75.1511 174.69 74.9937 174.69 74.5932 174.69 74.0783 175.076 73.8065 175.805 73.8065 176.363 73.8065 176.978 73.9782 177.436 74.2643L177.665 73.8208C177.179 73.5062 176.492 73.3202 175.834 73.3202 174.747 73.3202 174.089 73.8208 174.089 74.6362 174.089 75.2512 174.447 75.5516 175.605 75.8663L176.235 76.0379C177.05 76.2668 177.236 76.4098 177.236 76.8532 177.236 77.3967 176.792 77.6971 175.991 77.6971 175.333 77.6971 174.633 77.4969 174.103 77.1536L173.874 77.5827C174.418 77.9403 175.205 78.1691 175.949 78.1691 177.121 78.1691 177.808 77.6685 177.808 76.8103 177.808 76.138 177.465 75.8377 176.378 75.5373Z" fill="#FFFFFF" transform="matrix(1.00563 0 0 1 34.0665 38)"/><path d="M51.5788 57.2716 50.9494 57.2716 50.9494 63.0359C50.4774 63.2934 49.8051 63.4507 49.2044 63.4507L49.2044 63.4507C48.6465 63.4507 48.1745 63.3649 47.774 63.1647 47.9027 62.85 47.9743 62.5067 47.9743 62.1348 47.9743 60.7044 47.0159 59.7032 45.6857 59.7032 44.3411 59.7032 43.3828 60.7044 43.3828 62.1348 43.3828 62.521 43.4543 62.8643 43.583 63.179 43.1825 63.3649 42.7105 63.465 42.167 63.465L42.167 63.465C41.4947 63.465 40.9226 63.322 40.422 63.0502L40.422 59.5745 39.764 59.5745 39.764 63.0502C39.2634 63.322 38.6912 63.465 38.019 63.465L38.019 63.465C37.4754 63.465 37.0034 63.3649 36.6315 63.1647L36.6315 62.6211C36.6315 61.2194 35.8734 60.6043 34.2571 60.1895L33.5848 60.0179 36.4742 57.715 36.1309 57.3002 32.841 59.9464 32.9984 60.4613 33.9996 60.7331C35.4586 61.1193 36.0021 61.5484 36.0021 62.6497L36.0021 63.1504C35.5015 63.3506 34.772 63.4794 34.0283 63.4794L32.1688 63.4794 32.0114 63.4794C31.4107 63.4794 30.767 63.322 30.2664 63.0502L30.2664 57.3002 29.637 57.3002 29.637 63.1218C29.637 63.3506 29.6943 63.465 29.9088 63.5938 30.4524 63.9085 31.2104 64.123 31.9971 64.123L32.0114 64.123C32.0114 64.123 32.0114 64.123 32.0114 64.123 32.0114 64.123 32.0114 64.123 32.0114 64.123L33.9567 64.123C34.8149 64.123 35.6875 63.9943 36.3597 63.7368 36.889 63.9943 37.4468 64.123 38.019 64.123L38.0333 64.123C38.0333 64.123 38.0333 64.123 38.0333 64.123 38.0333 64.123 38.0333 64.123 38.0333 64.123L38.0476 64.123C38.7913 64.123 39.5065 63.9371 40.1073 63.6081 40.7366 63.9514 41.4089 64.123 42.167 64.123L42.1813 64.123C42.1813 64.123 42.1813 64.123 42.1813 64.123 42.1813 64.123 42.1813 64.123 42.1813 64.123L42.1956 64.123C42.825 64.123 43.3828 63.98 43.8834 63.7082 44.2982 64.266 44.9419 64.5807 45.7143 64.5807 46.4724 64.5807 47.1303 64.266 47.5308 63.7082 48.0315 63.98 48.6036 64.123 49.233 64.123L49.2473 64.123C49.2473 64.123 49.2473 64.123 49.2473 64.123 49.2473 64.123 49.2473 64.123 49.2473 64.123L49.2616 64.123C50.1484 64.123 51.0495 63.8083 51.636 63.3649L51.636 57.2716ZM45.6571 63.9514C44.6558 63.9514 43.9692 63.179 43.9692 62.1205 43.9692 61.062 44.6558 60.2896 45.6571 60.2896 46.644 60.2896 47.3449 61.0477 47.3449 62.1205 47.3592 63.1933 46.6583 63.9514 45.6571 63.9514Z" fill="#FFFFFF" transform="matrix(1.00563 0 0 1 34.0665 38)"/><path d="M185.289 73.3345C183.959 73.3059 182.857 74.4359 182.886 75.7518 182.886 77.0964 183.944 78.1834 185.317 78.1834 186.09 78.1834 186.805 77.8974 187.334 77.3824L186.977 77.0392C186.547 77.454 186.004 77.6542 185.317 77.6542 184.845 77.6542 184.431 77.5112 184.102 77.1965 183.773 76.8818 183.572 76.4956 183.529 76.0093L187.706 76.0093 187.706 75.7518C187.692 74.3787 186.676 73.3345 185.289 73.3345ZM183.515 75.5373C183.558 75.0367 183.744 74.6362 184.059 74.3215 184.388 74.0068 184.802 73.8495 185.274 73.8495 186.333 73.8495 187.077 74.5789 187.077 75.5373L183.515 75.5373Z" fill="#FFFFFF" transform="matrix(1.00563 0 0 1 34.0665 38)"/><path d="M181.212 77.6256C180.611 77.6256 180.125 77.1822 180.125 76.4813L180.125 73.9496 181.641 73.9496 181.641 73.4203 180.125 73.4203 180.125 72.0329 179.496 72.0329 179.496 73.4203 178.623 73.4203 178.623 73.9496 179.496 73.9496 179.496 76.5671C179.496 77.5684 180.154 78.1834 181.041 78.1834 181.355 78.1834 181.699 78.0976 182.042 77.926L181.927 77.454C181.727 77.5827 181.484 77.6256 181.212 77.6256Z" fill="#FFFFFF" transform="matrix(1.00563 0 0 1 34.0665 38)"/><path d="M91.0996 59.5602 90.4702 59.5602 90.4702 63.0932C90.0268 63.322 89.3975 63.4507 88.7252 63.4507L88.5678 63.4507 88.5678 63.4507 87.066 63.4507 87.066 61.8773C87.066 60.304 86.2221 59.4171 84.8203 59.4171 83.5187 59.4171 82.4602 60.1752 81.3445 61.4339L81.3445 57.4718 80.7152 57.4718 80.7152 63.4507 79.1132 63.4507 79.1132 63.4507 78.9701 63.4507C78.4123 63.4507 77.9403 63.3649 77.5398 63.1647 77.6685 62.85 77.74 62.5067 77.74 62.1348 77.74 60.7044 76.7817 59.7032 75.4515 59.7032 74.1069 59.7032 73.1486 60.7044 73.1486 62.1348 73.1486 62.521 73.2201 62.8643 73.3488 63.179 72.9483 63.3649 72.4763 63.465 71.9328 63.465L71.7897 63.465 71.7897 63.465 69.7586 63.465 69.4583 63.465 67.4271 63.465 67.0839 63.465 65.0384 63.465 64.7381 63.465 63.179 63.465 63.179 59.8891C62.7356 59.5888 61.9775 59.3313 61.2337 59.3313 59.8176 59.3313 58.7449 60.2038 58.7449 61.7343 58.7449 63.1933 59.8033 64.0944 61.2909 64.0944L64.8811 64.0944C64.8811 64.0944 64.8811 64.0944 64.8811 64.0944 64.8811 64.0944 64.8811 64.0944 64.8811 64.0944L67.2269 64.0944C67.2269 64.0944 67.2269 64.0944 67.2269 64.0944 67.2269 64.0944 67.2269 64.0944 67.2269 64.0944L69.5584 64.0944C69.5584 64.0944 69.5584 64.0944 69.5584 64.0944 69.5584 64.0944 69.5584 64.0944 69.5584 64.0944L71.8899 64.0944C71.8899 64.0944 71.8899 64.0944 71.8899 64.0944L71.9042 64.0944C72.5335 64.0944 73.0914 63.9514 73.592 63.6796 74.0068 64.2374 74.6505 64.5521 75.4229 64.5521 76.1809 64.5521 76.8389 64.2374 77.2394 63.6796 77.74 63.9514 78.3122 64.0944 78.9415 64.0944L78.9558 64.0944C78.9558 64.0944 78.9558 64.0944 78.9558 64.0944 78.9558 64.0944 78.9558 64.0944 78.9558 64.0944L88.7109 64.0944C88.7109 64.0944 88.7109 64.0944 88.7109 64.0944 88.7109 64.0944 88.7109 64.0944 88.7109 64.0944L88.7252 64.0944C89.5834 64.0944 90.5131 63.8655 91.0996 63.5366L91.0996 59.5602ZM62.5639 63.4507 61.248 63.4507C60.7044 63.4507 60.2467 63.3077 59.8891 63.0073 59.5459 62.707 59.3599 62.2778 59.3599 61.72 59.3599 61.1336 59.5316 60.6901 59.8891 60.3755 60.2324 60.0751 60.6758 59.9178 61.2051 59.9178 61.6914 59.9178 62.192 60.0465 62.5639 60.2753L62.5639 63.4507ZM75.4229 63.9514C74.4216 63.9514 73.7493 63.179 73.7493 62.1205 73.7493 61.062 74.4359 60.2896 75.4229 60.2896 76.4098 60.2896 77.1107 61.0477 77.1107 62.1205 77.1107 63.1933 76.4098 63.9514 75.4229 63.9514ZM86.4366 63.4507 81.3445 63.4507 81.3445 62.2635C82.4888 60.8189 83.5187 60.0179 84.7202 60.0179 85.8359 60.0179 86.4223 60.776 86.4223 61.9632L86.4223 63.4507Z" fill="#FFFFFF" transform="matrix(1.00563 0 0 1 34.0665 38)"/><path d="M85.8073 77.454 84.0479 73.4203 83.39 73.4203 85.5212 78.2407 85.4211 78.4695C85.0492 79.2276 84.7059 79.4994 84.191 79.4994 83.9621 79.4994 83.7475 79.4565 83.533 79.3706L83.347 79.8284C83.676 79.9428 83.9907 80 84.2625 80 85.0349 80 85.5498 79.5852 85.9932 78.5696L88.1674 73.4346 87.5094 73.4346 85.8073 77.454Z" fill="#FFFFFF" transform="matrix(1.00563 0 0 1 34.0665 38)"/><path d="M80.6294 73.3345C79.8999 73.3345 79.1418 73.6206 78.5124 74.1212L78.5124 73.4346 77.8831 73.4346 77.8831 78.0976 78.5124 78.0976 78.5124 74.6362C79.0417 74.1498 79.7568 73.8638 80.4005 73.8638 81.2873 73.8638 81.7879 74.3787 81.7879 75.2655L81.7879 78.0976 82.4173 78.0976 82.4173 75.1082C82.403 73.9925 81.745 73.3345 80.6294 73.3345Z" fill="#FFFFFF" transform="matrix(1.00563 0 0 1 34.0665 38)"/><path d="M90.8278 73.0485 90.8278 73.4203 90.0268 73.4203 90.0268 73.9496 90.8278 73.9496 90.8278 78.0976 91.4572 78.0976 91.4572 73.9496 93.0306 73.9496 93.0306 73.4203 91.4572 73.4203 91.4572 73.0485C91.4572 72.3333 91.872 71.9614 92.4584 71.9614 92.7159 71.9614 92.9305 71.99 93.0878 72.0615L93.2022 71.5895C92.9591 71.5037 92.673 71.4751 92.3726 71.4751 91.4858 71.4608 90.8278 72.0329 90.8278 73.0485Z" fill="#FFFFFF" transform="matrix(1.00563 0 0 1 34.0665 38)"/><path d="M96.3919 73.3345C94.9902 73.3345 93.8602 74.4073 93.8602 75.7661 93.8602 77.125 94.9759 78.1977 96.3919 78.1977 97.7794 78.2263 98.9523 77.1107 98.9237 75.7661 98.9666 74.4216 97.7937 73.3059 96.3919 73.3345ZM96.3919 77.6399C95.3191 77.6399 94.4752 76.796 94.4752 75.7518 94.4752 74.7077 95.3191 73.8638 96.3919 73.8638 97.4647 73.8638 98.3086 74.7077 98.3086 75.7518 98.3086 76.796 97.4647 77.6399 96.3919 77.6399Z" fill="#FFFFFF" transform="matrix(1.00563 0 0 1 34.0665 38)"/><path d="M62.664 73.3345C61.8773 73.3345 61.1479 73.6206 60.5042 74.1641 60.2324 73.6349 59.7175 73.3345 59.0452 73.3345 58.3301 73.3345 57.7436 73.5777 57.0713 74.1355L57.0713 73.4203 56.442 73.4203 56.442 78.0833 57.0713 78.0833 57.0713 74.5503C57.6721 74.0211 58.1584 73.8352 58.8021 73.8352 59.5888 73.8352 60.0894 74.3501 60.0894 75.2512L60.0894 78.0833 60.7188 78.0833 60.7188 75.3084C60.7188 75.0367 60.6758 74.7792 60.6186 74.5503 61.1479 74.0926 61.7772 73.8352 62.4495 73.8352 63.2362 73.8352 63.7225 74.3501 63.7225 75.2512L63.7225 78.0833 64.3662 78.0833 64.3662 75.0939C64.3662 73.9782 63.6796 73.3345 62.664 73.3345Z" fill="#FFFFFF" transform="matrix(1.00563 0 0 1 34.0665 38)"/><path d="M101.784 57.2716 101.155 57.2716 101.155 63.0359C100.683 63.2934 100.011 63.4507 99.41 63.4507L99.41 63.4507C98.7806 63.4507 98.1227 63.2934 97.6506 62.9787L97.6506 57.2716 97.0213 57.2716 97.0213 62.9787C96.5636 63.2791 95.9342 63.4364 95.3191 63.4507L94.1892 58.516 93.5455 58.516 94.6755 63.4507 92.7302 63.4507 92.7302 64.0801 95.3048 64.0801C96.0486 64.0801 96.7924 63.8512 97.3646 63.508 97.8938 63.8369 98.5661 64.0372 99.2669 64.0658L99.2669 64.0658C99.2669 64.0658 99.3099 64.0658 99.3242 64.0658 99.3528 64.0658 99.3814 64.0801 99.41 64.0801L99.4243 64.0801C99.4243 64.0801 99.4243 64.0801 99.4243 64.0801 99.4243 64.0801 99.4243 64.0801 99.4243 64.0801L99.4386 64.0801C100.325 64.0801 101.227 63.7654 101.813 63.322L101.813 57.2716Z" fill="#FFFFFF" transform="matrix(1.00563 0 0 1 34.0665 38)"/><path d="M52.437 73.3345C51.0352 73.3345 49.9052 74.4073 49.9052 75.7661 49.9052 77.125 51.0209 78.1977 52.437 78.1977 53.8244 78.2263 54.9973 77.1107 54.9687 75.7661 55.0116 74.4216 53.8387 73.3059 52.437 73.3345ZM52.437 77.6399C51.3642 77.6399 50.5203 76.796 50.5203 75.7518 50.5203 74.7077 51.3642 73.8638 52.437 73.8638 53.5097 73.8638 54.3537 74.7077 54.3537 75.7518 54.3537 76.796 53.5097 77.6399 52.437 77.6399Z" fill="#FFFFFF" transform="matrix(1.00563 0 0 1 34.0665 38)"/><path d="M68.3426 73.3345C67.6417 73.3345 67.0266 73.6206 66.6547 74.0497L66.6547 73.4203 66.0254 73.4203 66.0254 79.8999 66.6547 79.8999 66.6547 77.454C67.0266 77.8974 67.6417 78.1691 68.3426 78.1691 69.6442 78.1977 70.7456 77.0535 70.717 75.7375 70.7456 74.4359 69.6442 73.3059 68.3426 73.3345ZM68.2854 77.6399C67.6131 77.6399 67.0123 77.3395 66.6691 76.8675L66.6691 74.6505C67.0266 74.1641 67.6274 73.8781 68.2854 73.8781 69.3152 73.8781 70.1019 74.722 70.1019 75.7661 70.1019 76.8246 69.3152 77.6399 68.2854 77.6399Z" fill="#FFFFFF" transform="matrix(1.00563 0 0 1 34.0665 38)"/><path d="M74.3072 73.3345C73.5491 73.3345 72.8768 73.5491 72.2618 73.9639L72.4906 74.4359C73.0198 74.0497 73.5777 73.8638 74.1784 73.8638 75.1225 73.8638 75.6231 74.3072 75.6231 75.1368L75.6231 75.2369 73.7922 75.2369C72.605 75.2369 71.9042 75.7661 71.9042 76.6959 71.9042 77.597 72.5907 78.1977 73.735 78.1977 74.4216 78.1977 75.051 77.9832 75.6231 77.5684L75.6231 78.1119 76.2525 78.1119 76.2525 75.0939C76.2525 73.9639 75.5516 73.3345 74.3072 73.3345ZM75.6374 77.1107C75.0939 77.4683 74.4645 77.6542 73.8495 77.6542 73.0055 77.6542 72.5192 77.2823 72.5192 76.653 72.5192 76.0236 73.0198 75.6803 73.8781 75.6803L75.6374 75.6803 75.6374 77.1107Z" fill="#FFFFFF" transform="matrix(1.00563 0 0 1 34.0665 38)"/><path d="M107.105 57.7865C107.105 58.044 107.32 58.2585 107.577 58.2585 107.835 58.2585 108.035 58.044 108.035 57.7865 108.035 57.5291 107.835 57.3145 107.577 57.3145 107.306 57.3145 107.105 57.5291 107.105 57.7865Z" fill="#FFFFFF" transform="matrix(1.00563 0 0 1 34.0665 38)"/><path d="M117.618 73.3345C116.288 73.3059 115.187 74.4359 115.215 75.7518 115.215 77.0964 116.274 78.1834 117.647 78.1834 118.419 78.1834 119.135 77.8974 119.664 77.3824L119.306 77.0392C118.877 77.454 118.334 77.6542 117.647 77.6542 117.175 77.6542 116.76 77.5112 116.431 77.1965 116.102 76.8818 115.902 76.4956 115.859 76.0093L120.036 76.0093 120.036 75.7518C120.021 74.3787 119.006 73.3345 117.618 73.3345ZM115.845 75.5373C115.888 75.0367 116.074 74.6362 116.388 74.3215 116.717 74.0068 117.132 73.8495 117.604 73.8495 118.663 73.8495 119.406 74.5789 119.406 75.5373L115.845 75.5373Z" fill="#FFFFFF" transform="matrix(1.00563 0 0 1 34.0665 38)"/><path d="M123.697 77.6399C122.668 77.6399 121.824 76.796 121.824 75.7518 121.824 74.7077 122.668 73.8638 123.697 73.8638 124.284 73.8638 124.756 74.064 125.142 74.4788L125.614 74.1927C125.142 73.6492 124.441 73.3202 123.697 73.3202 122.367 73.2916 121.18 74.4359 121.209 75.7518 121.18 77.0678 122.367 78.2121 123.697 78.1834 124.484 78.1834 125.199 77.8259 125.671 77.2394L125.185 76.9533C124.827 77.3967 124.298 77.6399 123.697 77.6399Z" fill="#FFFFFF" transform="matrix(1.00563 0 0 1 34.0665 38)"/><path d="M109.723 76.4241 106.848 71.5609 105.947 71.5609 105.947 78.0833 106.59 78.0833 106.59 72.4191 109.566 77.411 109.866 77.411 112.841 72.4191 112.841 78.0833 113.513 78.0833 113.513 71.5609 112.612 71.5609Z" fill="#FFFFFF" transform="matrix(1.00563 0 0 1 34.0665 38)"/><path d="M101.041 73.4203 100.411 73.4203 100.411 78.0833 101.041 78.0833 101.041 74.8507C101.641 74.2213 102.385 73.8924 103.2 73.8924L103.2 73.3202C102.414 73.3202 101.641 73.6778 101.041 74.3072L101.041 73.4203Z" fill="#FFFFFF" transform="matrix(1.00563 0 0 1 34.0665 38)"/><path d="M123.097 65.5105C123.097 65.253 122.896 65.0384 122.639 65.0384 122.367 65.0384 122.167 65.2387 122.167 65.5105 122.167 65.7679 122.382 65.9825 122.639 65.9825 122.896 65.9825 123.097 65.7679 123.097 65.5105Z" fill="#FFFFFF" transform="matrix(1.00563 0 0 1 34.0665 38)"/><path d="M117.59 42.6247C122.382 42.6247 126.043 41.7522 128.604 40.0215 131.15 38.2907 132.48 35.759 132.551 32.4406L123.883 32.4406C123.755 33.7279 123.168 34.7863 122.124 35.6159 121.08 36.4456 119.549 36.8747 117.561 36.8747 115.13 36.8747 113.284 36.3168 112.026 35.2011 110.781 34.0855 110.152 32.4978 110.152 30.4094 110.152 28.3354 110.781 26.7334 112.026 25.6177 113.27 24.5021 115.115 23.9442 117.561 23.9442 118.891 23.9442 120.007 24.1445 120.951 24.545 121.881 24.9455 122.596 25.4461 123.082 26.0325 123.569 26.6333 123.855 27.2483 123.926 27.892L132.494 27.892C132.394 24.7881 131.064 22.3994 128.518 20.7116 125.972 19.0381 122.324 18.1942 117.59 18.1942 112.655 18.1942 108.865 19.2097 106.233 21.2265 103.601 23.2433 102.285 26.3043 102.285 30.3951 102.285 34.486 103.601 37.5469 106.233 39.5637 108.865 41.6235 112.655 42.6247 117.59 42.6247Z" fill="#FFFFFF" transform="matrix(1.00563 0 0 1 34.0665 38)"/><path d="M129.49 58.0297C129.49 58.2871 129.691 58.5017 129.962 58.5017 130.22 58.5017 130.434 58.2871 130.434 58.0297 130.434 57.7579 130.234 57.5577 129.962 57.5577 129.705 57.5577 129.49 57.7722 129.49 58.0297Z" fill="#FFFFFF" transform="matrix(1.00563 0 0 1 34.0665 38)"/><path d="M108.865 57.7865C108.865 58.044 109.065 58.2585 109.337 58.2585 109.594 58.2585 109.809 58.044 109.809 57.7865 109.809 57.5291 109.608 57.3145 109.337 57.3145 109.065 57.3145 108.865 57.5291 108.865 57.7865Z" fill="#FFFFFF" transform="matrix(1.00563 0 0 1 34.0665 38)"/><path d="M124.856 65.5105C124.856 65.253 124.656 65.0384 124.384 65.0384 124.127 65.0384 123.912 65.2387 123.912 65.5105 123.912 65.7679 124.112 65.9825 124.384 65.9825 124.642 65.9825 124.856 65.7679 124.856 65.5105Z" fill="#FFFFFF" transform="matrix(1.00563 0 0 1 34.0665 38)"/><path d="M98.0654 18.9666 98.0654 41.8952 89.7837 41.8952 77.3395 27.4057 77.1536 27.4057 77.1536 41.8952 70.3165 41.8952 70.3165 18.9666 78.7556 18.9666 91.0138 33.2272 91.1997 33.2272 91.1997 18.9666 98.0654 18.9666Z" fill="#FFFFFF" transform="matrix(1.00563 0 0 1 34.0665 38)"/><path d="M123.082 26.0611C122.596 25.4604 121.895 24.9598 120.951 24.5736 120.021 24.1731 118.891 23.9728 117.561 23.9728 115.13 23.9728 113.284 24.5307 112.026 25.6463 110.781 26.762 110.152 28.3497 110.152 30.438 110.152 32.5121 110.781 34.1141 112.026 35.2298 113.27 36.3454 115.115 36.9033 117.561 36.9033 119.564 36.9033 121.08 36.4885 122.124 35.6446 123.168 34.8149 123.769 33.7565 123.883 32.4692L132.551 32.4692C132.466 35.7876 131.15 38.3193 128.604 40.0501 126.058 41.7808 122.382 42.6533 117.59 42.6533 112.655 42.6533 108.865 41.6378 106.233 39.621 103.601 37.6041 102.285 34.5432 102.285 30.4524 102.285 26.3615 103.601 23.3006 106.233 21.2837 108.865 19.2669 112.655 18.2514 117.59 18.2514 122.339 18.2514 125.986 19.0953 128.518 20.7688 131.064 22.4423 132.38 24.8453 132.494 27.9492L123.926 27.9492C123.841 27.277 123.554 26.6619 123.082 26.0611Z" fill="#FFFFFF" transform="matrix(1.00563 0 0 1 34.0665 38)"/><path d="M170.37 41.8952 163.19 41.8952 163.19 25.675 163.004 25.675 156.295 41.8952 150.688 41.8952 143.823 25.4461 143.637 25.4461 143.637 41.8952 136.8 41.8952 136.8 18.9666 148.085 18.9666 153.435 32.6837 153.621 32.6837 158.884 18.9666 170.384 18.9666 170.384 41.8952Z" fill="#FFFFFF" transform="matrix(1.00563 0 0 1 34.0665 38)"/><path d="M191.954 23.7297C191.01 23.3149 189.637 23.1003 187.863 23.1003 186.075 23.1003 184.802 23.2719 184.03 23.6295 183.258 23.9871 182.886 24.5021 182.886 25.1886 182.886 25.7465 183.115 26.147 183.572 26.4044 184.03 26.6619 184.788 26.8478 185.847 26.948L194.801 27.7204C197.447 27.9492 199.435 28.6358 200.751 29.7372 202.081 30.8529 202.739 32.5264 202.739 34.7863 202.739 36.8604 202.196 38.4624 201.094 39.6067 200.007 40.7366 198.419 41.5233 196.345 41.9667 194.271 42.4102 191.597 42.6247 188.293 42.6247 185.117 42.6247 182.528 42.3959 180.526 41.9238 178.523 41.4518 176.964 40.6079 175.863 39.4064 174.761 38.2049 174.161 36.4742 174.089 34.2571L182.414 34.2571C182.643 35.5873 183.258 36.4885 184.245 36.9605 185.232 37.4325 186.719 37.6614 188.693 37.6614 190.653 37.6614 192.069 37.4754 192.941 37.1035 193.828 36.7316 194.271 36.1452 194.271 35.3585 194.271 34.7005 194.014 34.2142 193.513 33.8995 193.013 33.5848 192.298 33.3846 191.368 33.2988L182.7 32.4262C180.011 32.1545 177.994 31.4965 176.664 30.4667 175.333 29.4368 174.661 27.8205 174.661 25.6177 174.661 22.9001 175.805 20.9834 178.094 19.882 180.383 18.7806 183.744 18.2228 188.178 18.2228 192.612 18.2228 195.988 18.7806 198.305 19.9106 200.622 21.0406 201.838 23.0145 201.938 25.8752L193.656 25.8752C193.47 24.8596 192.898 24.1445 191.954 23.7297Z" fill="#FFFFFF" transform="matrix(1.00563 0 0 1 34.0665 38)"/><path d="M21.2694 20.3683 35.2441 31.1389 21.2694 41.8952Z" fill="#FFFFFF" transform="matrix(1.00563 0 0 1 34.0665 38)"/><path d="M42.5532 3.9764 56.5135 14.747 42.5532 25.5033Z" fill="#FFFFFF" transform="matrix(1.00563 0 0 1 34.0665 38)"/><path d="M13.9603 37.9045 0 27.1482 13.9603 16.3919Z" fill="#FFFFFF" transform="matrix(1.00563 0 0 1 34.0665 38)"/><path d="M35.2441 21.5269 21.2694 10.7563 35.2441 0Z" fill="#FFFFFF" transform="matrix(1.00563 0 0 1 34.0665 38)"/></g></svg>